<svg xmlns="http://www.w3.org/2000/svg" width="45px" height="45px">

    <path fill-rule="evenodd" fill="rgb(51, 51, 51)" d="M22.090,0.555 C9.912,0.555 0.005,10.463 0.005,22.641 C0.005,34.819 9.912,44.727 22.090,44.727 C34.268,44.727 44.176,34.819 44.176,22.641 C44.176,10.463 34.268,0.555 22.090,0.555 ZM27.583,23.419 L23.990,23.419 C23.990,29.158 23.990,36.226 23.990,36.226 L18.665,36.226 C18.665,36.226 18.665,29.228 18.665,23.419 L16.134,23.419 L16.134,18.892 L18.665,18.892 L18.665,15.964 C18.665,13.868 19.662,10.591 24.039,10.591 L27.982,10.605 L27.982,15.000 C27.982,15.000 25.585,15.000 25.119,15.000 C24.652,15.000 23.991,15.232 23.991,16.233 L23.991,18.892 L28.047,18.892 L27.583,23.419 Z"></path>
</svg>
