<svg xmlns="http://www.w3.org/2000/svg" width="45px" height="45px">
    <path fill-rule="evenodd" fill="rgb(51, 51, 51)" d="M22.089,44.727 C9.911,44.727 0.004,34.819 0.004,22.641 C0.004,10.463 9.911,0.555 22.089,0.555 C34.267,0.555 44.175,10.463 44.175,22.641 C44.175,34.819 34.267,44.727 22.089,44.727 ZM34.650,20.063 L34.650,14.935 C34.650,12.259 32.472,10.081 29.795,10.081 L14.383,10.081 C11.706,10.081 9.529,12.259 9.529,14.935 L9.529,20.063 L9.529,30.348 C9.529,33.026 11.706,35.203 14.383,35.203 L29.795,35.203 C32.472,35.203 34.650,33.026 34.650,30.348 L34.650,20.063 ZM29.794,32.753 L14.383,32.753 C13.054,32.753 11.975,31.677 11.975,30.348 L11.975,20.063 L15.725,20.063 C15.401,20.860 15.220,21.729 15.220,22.641 C15.220,26.427 18.301,29.511 22.089,29.511 C25.878,29.511 28.959,26.427 28.959,22.641 C28.959,21.729 28.775,20.860 28.450,20.063 L32.201,20.063 L32.201,30.348 C32.201,31.677 31.122,32.753 29.794,32.753 ZM27.484,12.987 L31.189,12.976 L31.744,12.973 L31.744,13.525 L31.744,17.232 L27.499,17.246 L27.484,12.987 ZM22.089,27.062 C19.651,27.062 17.666,25.079 17.667,22.639 C17.668,21.678 17.980,20.788 18.503,20.061 C19.309,18.949 20.614,18.220 22.089,18.220 C23.565,18.220 24.870,18.949 25.675,20.063 C26.197,20.788 26.512,21.679 26.512,22.641 C26.512,25.081 24.525,27.062 22.089,27.062 Z"></path>
</svg>
