<svg xmlns="http://www.w3.org/2000/svg" x="0px" y="0px" width="45px" height="45px" viewBox="0 0 45 45" style="enable-background:new 0 0 45 45;">
    <path fill-rule="evenodd" fill="rgb(51, 51, 51)" d="M22.5,18.6c2.1,0,3.9-1.7,3.9-3.9c0-2.2-1.7-3.9-3.9-3.9c-2.2,0-3.9,1.7-3.9,3.9C18.6,17,20.4,18.7,22.5,18.6z"></path>
    <path fill-rule="evenodd" fill="rgb(51, 51, 51)" d="M22.5,0C10.1,0,0,10.1,0,22.5S10.1,45,22.5,45S45,34.9,45,22.5S34.9,0,22.5,0z M22.5,6.8c4.4,0,7.9,3.6,7.9,8
	c0,4.3-3.6,7.8-8,7.8c-4.3,0-7.9-3.6-7.9-7.9C14.6,10.4,18.2,6.8,22.5,6.8z M31.4,25.8c-1,1-2.1,1.7-3.4,2.2
	c-1.2,0.5-2.6,0.7-3.9,0.9c0.2,0.2,0.3,0.3,0.4,0.5c1.8,1.8,3.6,3.6,5.4,5.4c0.6,0.6,0.7,1.4,0.4,2.1c-0.4,0.8-1.2,1.3-2,1.2
	c-0.5,0-0.9-0.3-1.3-0.6c-1.4-1.4-2.7-2.7-4.1-4.1c-0.4-0.4-0.6-0.3-0.9,0c-1.4,1.4-2.8,2.8-4.2,4.2c-0.6,0.6-1.4,0.7-2.1,0.4
	c-0.8-0.4-1.3-1.2-1.2-2c0-0.5,0.3-0.9,0.7-1.3c1.8-1.8,3.6-3.6,5.3-5.4c0.1-0.1,0.2-0.2,0.4-0.4c-2.4-0.3-4.6-0.9-6.5-2.3
	c-0.2-0.2-0.5-0.4-0.7-0.6c-0.8-0.8-0.9-1.7-0.3-2.6c0.6-0.8,1.5-1,2.5-0.6c0.2,0.1,0.4,0.2,0.5,0.3c3.5,2.4,8.3,2.5,11.8,0.1
	c0.3-0.3,0.7-0.5,1.1-0.6c0.8-0.2,1.6,0.1,2.1,0.8C32,24.3,32,25.2,31.4,25.8z"></path>
</svg>
