<svg xmlns="http://www.w3.org/2000/svg" width="45px" height="45px">
    <path fill-rule="evenodd" fill="rgb(51, 51, 51)" d="M22.090,0.551 C9.890,0.551 -0.001,10.443 -0.001,22.641 C-0.001,34.843 9.890,44.732 22.090,44.732 C34.290,44.732 44.181,34.843 44.181,22.641 C44.181,10.443 34.290,0.551 22.090,0.551 ZM33.296,25.031 C34.325,26.038 35.415,26.983 36.339,28.093 C36.749,28.583 37.134,29.092 37.428,29.662 C37.848,30.476 37.469,31.369 36.740,31.419 L32.215,31.417 C31.046,31.514 30.116,31.042 29.331,30.241 C28.706,29.605 28.125,28.927 27.522,28.267 C27.275,27.997 27.016,27.742 26.707,27.542 C26.090,27.141 25.554,27.266 25.200,27.908 C24.840,28.563 24.758,29.290 24.724,30.021 C24.674,31.088 24.353,31.366 23.282,31.417 C20.994,31.523 18.823,31.177 16.805,30.023 C15.025,29.007 13.648,27.570 12.447,25.945 C10.110,22.774 8.319,19.296 6.711,15.717 C6.349,14.913 6.613,14.480 7.503,14.465 C8.980,14.434 10.457,14.438 11.934,14.462 C12.535,14.470 12.933,14.817 13.164,15.383 C13.962,17.347 14.940,19.215 16.167,20.950 C16.494,21.411 16.827,21.870 17.302,22.196 C17.826,22.554 18.226,22.437 18.473,21.849 C18.631,21.479 18.700,21.082 18.734,20.682 C18.851,19.317 18.866,17.952 18.662,16.592 C18.536,15.742 18.057,15.191 17.209,15.032 C16.777,14.950 16.840,14.789 17.050,14.542 C17.415,14.116 17.756,13.851 18.439,13.851 L23.553,13.850 C24.359,14.008 24.539,14.372 24.649,15.183 L24.653,20.865 C24.644,21.179 24.811,22.110 25.375,22.315 C25.827,22.464 26.125,22.103 26.395,21.815 C27.622,20.514 28.495,18.979 29.278,17.389 C29.623,16.688 29.921,15.963 30.210,15.237 C30.425,14.699 30.760,14.433 31.366,14.443 L36.290,14.449 C36.435,14.449 36.583,14.450 36.726,14.474 C37.556,14.617 37.783,14.975 37.526,15.784 C37.122,17.056 36.337,18.115 35.569,19.177 C34.747,20.315 33.870,21.412 33.055,22.554 C32.307,23.600 32.366,24.124 33.296,25.031 Z"></path>
</svg>

