<svg xmlns="http://www.w3.org/2000/svg" width="45px" height="45px">
    <path fill-rule="evenodd" fill="rgb(51, 51, 51)" d="M22.089,44.732 C9.889,44.732 -0.001,34.843 -0.001,22.641 C-0.001,10.443 9.889,0.551 22.089,0.551 C34.289,0.551 44.180,10.443 44.180,22.641 C44.180,34.843 34.289,44.732 22.089,44.732 ZM37.147,15.270 C36.765,13.609 35.409,12.386 33.774,12.203 C29.907,11.773 25.992,11.768 22.095,11.773 C18.196,11.768 14.281,11.773 10.413,12.203 C8.779,12.386 7.424,13.611 7.042,15.270 C6.498,17.630 6.492,20.210 6.492,22.641 C6.492,25.075 6.492,27.655 7.036,30.016 C7.417,31.675 8.773,32.898 10.406,33.081 C14.275,33.512 18.190,33.516 22.088,33.512 C25.986,33.516 29.901,33.512 33.768,33.081 C35.401,32.898 36.758,31.675 37.140,30.016 C37.684,27.655 37.686,25.074 37.686,22.641 C37.686,20.210 37.691,17.631 37.147,15.270 ZM18.064,17.168 C21.370,18.895 24.654,20.606 27.981,22.342 C24.665,24.062 21.378,25.765 18.064,27.484 C18.064,24.034 18.064,20.620 18.064,17.168 Z"></path>
</svg>
